HIERARCHY
ROOT Hips
{
  OFFSET 0 89.5177 0.535
  CHANNELS 6 Xposition Yposition Zposition Zrotation Xrotation Yrotation
  JOINT Spine
  {
    OFFSET 12.0259 -0.162855 1.69034e-005
    CHANNELS 3 Zrotation Xrotation Yrotation
    JOINT Spine1
    {
      OFFSET 15.3169 -0.0121922 0
      CHANNELS 3 Zrotation Xrotation Yrotation
      JOINT Spine2
      {
        OFFSET 15.3176 -0.0121908 0
        CHANNELS 3 Zrotation Xrotation Yrotation
        JOINT Neck
        {
          OFFSET 19.9142 1.56338 0
          CHANNELS 3 Zrotation Xrotation Yrotation
          JOINT Head
          {
            OFFSET 6.92651 0 0
            CHANNELS 3 Zrotation Xrotation Yrotation
            End Site
            {
              OFFSET 20.7666 0 0
            }
          }
          JOINT LeftShoulder
          {
            OFFSET -6.20654 0.708824 7.28219
            CHANNELS 3 Zrotation Xrotation Yrotation
            JOINT LeftArm
            {
              OFFSET 14.108 0 -1.52588e-005
              CHANNELS 3 Zrotation Xrotation Yrotation
              JOINT LeftForeArm
              {
                OFFSET 28.5802 0 0
                CHANNELS 3 Zrotation Xrotation Yrotation
                JOINT LeftHand
                {
                  OFFSET 27.092 0 0
                  CHANNELS 3 Zrotation Xrotation Yrotation
                  End Site
                  {
                    OFFSET 9.55928 -0.186424 0.145352
                  }
                }
              }
            }
          }
          JOINT RightShoulder
          {
            OFFSET -6.20654 0.708866 -7.28218
            CHANNELS 3 Zrotation Xrotation Yrotation
            JOINT RightArm
            {
              OFFSET 14.108 0 1.52588e-005
              CHANNELS 3 Zrotation Xrotation Yrotation
              JOINT RightForeArm
              {
                OFFSET 28.5802 0 0
                CHANNELS 3 Zrotation Xrotation Yrotation
                JOINT RightHand
                {
                  OFFSET 27.092 0 0
                  CHANNELS 3 Zrotation Xrotation Yrotation
                  End Site
                  {
                    OFFSET 9.55929 -0.186417 -0.145354
                  }
                }
              }
            }
          }
        }
      }
    }
  }
  JOINT LeftUpLeg
  {
    OFFSET 0.005 -0.535 8.837
    CHANNELS 3 Zrotation Xrotation Yrotation
    JOINT LeftLeg
    {
      OFFSET 39.9035 0 0
      CHANNELS 3 Zrotation Xrotation Yrotation
      JOINT LeftFoot
      {
        OFFSET 39.6689 0 0
        CHANNELS 3 Zrotation Xrotation Yrotation
        JOINT LeftToe
        {
          OFFSET 10.1624 13.6296 0
          CHANNELS 3 Zrotation Xrotation Yrotation
          End Site
          {
            OFFSET 8.38147 0 0
          }
        }
      }
    }
  }
  JOINT RightUpLeg
  {
    OFFSET 0.005 -0.535 -8.837
    CHANNELS 3 Zrotation Xrotation Yrotation
    JOINT RightLeg
    {
      OFFSET 39.9035 0 0
      CHANNELS 3 Zrotation Xrotation Yrotation
      JOINT RightFoot
      {
        OFFSET 39.6689 0 0
        CHANNELS 3 Zrotation Xrotation Yrotation
        JOINT RightToe
        {
          OFFSET 10.1624 13.6296 0
          CHANNELS 3 Zrotation Xrotation Yrotation
          End Site
          {
            OFFSET 8.38147 0 0
          }
        }
      }
    }
  }
}
MOTION
Frames:	9
Frame Time:	0.0333333
434.266 88.1415 30.6739 47.4059 -89.1773 -40.2664 0.596664 -0.456469 0.281218 1.19562 -0.909508 0.567364 1.19562 -0.909508 0.567354 -8.30748e-012 -9.0191e-006 -5.27751e-005 -18.8684 51.2024 17.5992 -179.741 -6.99021 -87.8737 34.6929 -69.6355 30.4276 -3.78957 0 -1.59028e-015 -48.8932 -9.40287 -32.7494 179.898 1.65465 93.5307 50.7087 59.0315 -40.2641 -18.3038 0 -1.59028e-015 -48.222 22.8574 45.4553 -1.83073 -4.02253 178.013 -20.339 -7.95139e-016 -0 21.9382 14.6423 -6.90074 90 -8.94531e-016 -0 2.62591 -8.54878 176.296 -14.2998 -3.18056e-015 -3.97569e-016 16.8752 -6.16076 1.71938 90 8.95746e-021 -3.97569e-016 
434.283 88.1519 30.635 45.5385 -89.3158 -42.1736 0.5672 -0.445563 0.276594 1.1366 -0.887888 0.557774 1.1366 -0.887888 0.557764 -8.30748e-012 -9.0191e-006 -5.27751e-005 -18.7494 50.6501 17.0594 -179.737 -7.02505 -87.85 34.3784 -69.8956 30.0699 -3.75241 0 -0 -48.9234 -9.36173 -32.6669 179.899 1.58715 93.6567 50.5738 58.8979 -40.5708 -18.3643 -9.54166e-015 1.59028e-015 -51.8262 21.9124 47.1745 -1.81603 -3.91929 178.075 -20.2482 -3.97569e-016 1.98785e-016 21.9063 14.6196 -6.95413 90 -5.96354e-016 -6.36111e-015 2.68273 -8.51908 176.352 -14.0679 -3.18056e-015 -3.97569e-016 16.7718 -6.23513 1.72017 90 2.64932e-020 -1.98785e-016 
434.296 88.1584 30.6056 44.9525 -89.4572 -42.7967 0.532221 -0.433802 0.287394 1.06666 -0.864438 0.578994 1.06666 -0.864438 0.578985 -8.30748e-012 -9.0191e-006 -5.27751e-005 -18.3191 50.6931 16.3548 -179.741 -6.95752 -87.8601 34.4571 -69.9805 30.0807 -3.73632 3.18055e-015 -3.18055e-015 -49.3893 -9.25807 -32.7208 179.907 1.42294 93.7474 50.3563 58.4799 -40.6438 -18.8802 3.18055e-015 -0 -57.8013 18.9922 48.6798 -1.86579 -3.77274 178.144 -20.2425 -3.97569e-016 -1.98785e-016 21.9769 14.6956 -7.03908 90 -1.09332e-015 3.18055e-015 2.68814 -8.4753 176.4 -13.8948 3.18056e-015 3.97569e-016 16.6935 -6.3044 1.7208 90 -1.11376e-021 -1.98785e-016 
434.289 88.1628 30.5824 43.2643 -89.5617 -44.5008 0.512817 -0.407598 0.306207 1.02784 -0.811961 0.616238 1.02784 -0.811961 0.616229 -8.30748e-012 -9.0191e-006 -5.27751e-005 -18.0073 51.203 15.8524 -179.741 -6.95452 -87.8637 34.7154 -70.0662 30.5066 -3.99285 3.18055e-015 3.18055e-015 -49.2728 -9.17948 -32.5448 179.914 1.35808 93.6227 49.2534 57.7475 -39.6131 -19.9323 -9.54166e-015 -1.59028e-015 -61.9748 16.7291 49.0715 -1.8694 -3.71029 178.157 -20.1844 3.97569e-016 -1.98785e-016 21.9651 14.6703 -7.04494 90 -7.95139e-016 -6.36111e-015 2.68544 -8.42752 176.409 -13.7876 -1.59028e-015 -0 16.6469 -6.34583 1.73509 90 5.48822e-020 -3.97569e-016 
434.27 88.1625 30.5787 46.2493 -89.6109 -41.4932 0.494061 -0.386058 0.316853 0.990283 -0.768891 0.63721 0.990282 -0.768891 0.6372 -8.30748e-012 -9.0191e-006 -5.27751e-005 -17.6777 51.878 15.3843 -179.753 -6.93541 -87.955 34.8186 -70.0044 30.8919 -4.30281 3.18055e-015 -1.59028e-015 -49.6171 -9.05986 -32.5517 179.917 1.31522 93.5912 48.1577 57.3146 -38.5241 -20.3862 -6.36111e-015 -1.59028e-015 -64.9412 15.0254 49.3237 -1.90813 -3.69165 178.127 -20.1718 3.97569e-016 3.97569e-016 21.9771 14.6764 -7.05664 90 -2.18663e-015 -3.18055e-015 2.62057 -8.39562 176.368 -13.816 1.59028e-015 -0 16.6645 -6.33982 1.75006 90 2.31567e-019 -1.98785e-016 
434.244 88.1623 30.5902 54.7619 -89.6019 -32.937 0.474235 -0.386928 0.316083 0.95063 -0.770748 0.635543 0.95063 -0.770748 0.635534 -8.30708e-012 -9.0191e-006 -5.27751e-005 -17.1892 52.2667 14.9234 -179.75 -6.85291 -87.9073 34.4294 -70.2924 30.6422 -4.41954 3.18055e-015 1.59028e-015 -51.3414 -9.11523 -33.2705 179.921 1.21283 93.7134 47.9069 57.2956 -38.2398 -20.7796 -3.18055e-015 -0 -66.5105 14.2284 49.7005 -1.9664 -3.70107 178.072 -20.1657 1.19271e-015 7.95139e-016 21.9438 14.6895 -7.08112 90 1.98785e-016 3.18055e-015 2.52965 -8.39817 176.304 -13.8981 3.18056e-015 -0 16.7023 -6.30365 1.76298 90 -2.01614e-019 -0 
434.211 88.1617 30.6013 61.3484 -89.4975 -26.2859 0.46356 -0.404826 0.29016 0.9292 -0.806815 0.583773 0.9292 -0.806815 0.583763 -8.30748e-012 -9.0191e-006 -5.27751e-005 -16.8838 52.1454 14.4232 -179.763 -6.62189 -87.9445 34.7301 -71.2534 30.7423 -4.40565 -3.18055e-015 -0 -51.9932 -9.20046 -33.7666 179.921 1.17016 93.8459 47.6849 57.4202 -38.1455 -20.8959 0 -1.59028e-015 -65.9099 14.6798 49.7201 -2.0153 -3.66799 178.008 -20.2284 3.97569e-016 1.98785e-016 21.9913 14.8056 -7.18407 90 1.09332e-015 3.18055e-015 2.4885 -8.44472 176.218 -13.9952 -1.59028e-015 3.97569e-016 16.7583 -6.23392 1.77914 90 -1.51661e-021 -7.95139e-016 
434.192 88.1613 30.6138 67.3518 -89.3276 -20.2216 0.450827 -0.434462 0.260945 0.903667 -0.866381 0.525488 0.903667 -0.866381 0.525479 -8.30748e-012 -9.0191e-006 -5.27751e-005 -16.6331 51.5325 13.9332 -179.776 -6.49576 -88.0173 33.9725 -71.9476 29.9098 -4.03552 -3.18055e-015 3.18055e-015 -51.5291 -9.75306 -34.5985 179.929 1.04322 93.873 47.102 57.2965 -37.5931 -20.9618 0 4.77083e-015 -65.2858 14.9923 49.3596 -2.07612 -3.70209 177.956 -20.3127 0 3.97569e-016 22.083 14.952 -7.28928 90 -6.95746e-016 -6.36111e-015 2.48284 -8.48248 176.159 -14.0611 4.77083e-015 3.97569e-016 16.8067 -6.10256 1.77753 90 8.493e-020 1.98785e-016 
434.178 88.1621 30.6215 70.4302 -89.1284 -17.0861 0.435727 -0.45225 0.233238 0.873334 -0.902237 0.470095 0.873334 -0.902237 0.470086 -8.30708e-012 -9.0191e-006 -5.27751e-005 -15.9785 50.2941 13.08 -179.795 -6.21581 -88.1017 33.2489 -72.0726 29.0785 -3.82444 0 -0 -52.8089 -9.70424 -35.1173 179.935 0.985727 93.7946 46.6775 57.4064 -37.1648 -21.1623 6.36111e-015 -0 -64.2812 15.5023 49.0486 -2.1009 -3.79793 177.905 -20.3526 0 -0 22.1199 15.0448 -7.36626 90 -1.59028e-015 -3.18055e-015 2.51479 -8.53493 176.111 -14.0935 1.59028e-015 -0 16.8436 -5.96589 1.77441 90 -1.91092e-019 5.96354e-016 
